<svg xmlns="http://www.w3.org/2000/svg" version="1.1" xmlns:xlink="http://www.w3.org/1999/xlink" xmlns:svgjs="http://svgjs.dev/svgjs" width="1500" height="1029" viewBox="0 0 1500 1029"><g transform="matrix(1,0,0,1,-0.9707977158286667,0.4165991902833639)"><svg viewBox="0 0 360 247" data-background-color="#ffffff" preserveAspectRatio="xMidYMid meet" height="1029" width="1500" xmlns="http://www.w3.org/2000/svg" xmlns:xlink="http://www.w3.org/1999/xlink"><g id="tight-bounds" transform="matrix(1,0,0,1,0.23299145179888114,-0.09999999999999432)"><svg viewBox="0 0 359.53401709640224 247.2" height="247.2" width="359.53401709640224"><g><svg viewBox="0 0 397.4975999999999 273.3021134232565" height="247.2" width="359.53401709640224"><g transform="matrix(1,0,0,1,0,200.40121683332148)"><svg viewBox="0 0 397.4975999999999 72.90089658993506" height="72.90089658993506" width="397.4975999999999"><g id="textblocktransform"><svg viewBox="0 0 397.4975999999999 72.90089658993506" height="72.90089658993506" width="397.4975999999999" id="textblock"><g><rect width="397.4975999999999" height="3.646827772252916" x="0" y="44.734968248932724" fill="#f3b243" opacity="1" stroke-width="0" stroke="transparent" fill-opacity="1" class="rect-qz-0" data-fill-palette-color="primary" rx="1%" id="qz-0" data-palette-color="#f3b243"></rect></g><g transform="matrix(1,0,0,1,0.9887999999999693,0)"><svg viewBox="0 0 395.52 40.438966946540546" height="40.438966946540546" width="395.52"><g transform="matrix(1,0,0,1,0,0)"><svg width="395.52" viewBox="2.95 -37.85 470.40000000000003 48.1" height="40.438966946540546" data-palette-color="#f3b243"><path d="M29.7-7L31.75-2.7Q30.85-2.1 29.3-1.35 27.75-0.6 25.68-0.1 23.6 0.4 21.15 0.4L21.15 0.4Q16.95 0.35 13.58-1.1 10.2-2.55 7.85-5.05 5.5-7.55 4.23-10.83 2.95-14.1 2.95-17.8L2.95-17.8Q2.95-21.85 4.28-25.28 5.6-28.7 8-31.23 10.4-33.75 13.68-35.15 16.95-36.55 20.85-36.55L20.85-36.55Q24.1-36.55 26.75-35.68 29.4-34.8 31.3-33.6L31.3-33.6 29.35-29.1Q27.85-30.1 25.73-31 23.6-31.9 21-31.9L21-31.9Q18.35-31.9 16-30.85 13.65-29.8 11.85-27.9 10.05-26 9.03-23.48 8-20.95 8-18.05L8-18.05Q8-15.1 8.93-12.58 9.85-10.05 11.58-8.2 13.3-6.35 15.75-5.3 18.2-4.25 21.25-4.25L21.25-4.25Q24-4.25 26.15-5.1 28.3-5.95 29.7-7L29.7-7ZM49.45-25L68.3 0Q67.9 0 66.97 0 66.05 0 65.07 0 64.1 0 63.4 0 62.7 0 62.7 0L62.7 0 45.35-22.95Q44.9-23.65 44.3-24.7 43.7-25.75 43.27-27.03 42.85-28.3 42.85-29.65L42.85-29.65Q42.85-31.8 43.9-33.68 44.95-35.55 46.92-36.7 48.9-37.85 51.75-37.85L51.75-37.85Q54.7-37.85 57.02-36.7 59.35-35.55 60.85-34L60.85-34 58.4-30.75Q56.9-32.15 55.42-32.98 53.95-33.8 52.5-33.8L52.5-33.8Q50.3-33.8 49.07-32.48 47.85-31.15 47.85-29.3L47.85-29.3Q47.85-28.4 48.22-27.45 48.6-26.5 48.97-25.85 49.35-25.2 49.45-25L49.45-25ZM49.9-21.2L50-17.4Q48.6-17.4 47.25-16.85 45.9-16.3 44.85-15.35 43.8-14.4 43.17-13.13 42.55-11.85 42.55-10.4L42.55-10.4Q42.55-8.45 43.57-6.98 44.6-5.5 46.32-4.67 48.05-3.85 50.1-3.85L50.1-3.85Q52-3.85 53.45-4.42 54.9-5 55.95-5.98 57-6.95 57.5-8.1L57.5-8.1 60.6-5.4Q59.25-2.9 56.42-1.2 53.6 0.5 49.5 0.5L49.5 0.5Q46.1 0.5 43.4-0.9 40.7-2.3 39.12-4.7 37.55-7.1 37.55-10.15L37.55-10.15Q37.55-12.5 38.6-14.5 39.65-16.5 41.42-17.98 43.2-19.45 45.37-20.3 47.55-21.15 49.9-21.2L49.9-21.2ZM57.65-8.4L62.55-21.2 67-21.2 61.15-6.2 57.65-8.4ZM104.45-17.7L104.45-3.1Q103.7-2.45 102.35-1.83 101-1.2 99.37-0.7 97.75-0.2 96.02 0.1 94.3 0.4 92.8 0.4L92.8 0.4Q88.45 0.4 84.97-0.95 81.5-2.3 79.02-4.7 76.55-7.1 75.22-10.35 73.9-13.6 73.9-17.4L73.9-17.4Q73.9-21.9 75.37-25.48 76.85-29.05 79.42-31.53 82-34 85.35-35.27 88.7-36.55 92.45-36.55L92.45-36.55Q95.6-36.55 98.3-35.8 101-35.05 103.05-33.9L103.05-33.9 101.4-29.45Q100.4-30.05 98.92-30.55 97.45-31.05 95.9-31.38 94.35-31.7 93-31.7L93-31.7Q89.8-31.7 87.2-30.73 84.6-29.75 82.75-27.93 80.9-26.1 79.9-23.53 78.9-20.95 78.9-17.75L78.9-17.75Q78.9-14.8 79.9-12.35 80.9-9.9 82.75-8.13 84.6-6.35 87.17-5.38 89.75-4.4 92.85-4.4L92.85-4.4Q94.7-4.4 96.5-4.78 98.3-5.15 99.6-5.85L99.6-5.85 99.6-13.05 92.4-13.05 92.4-17.7 104.45-17.7ZM130.64 0L125.89 0 141.69-37.65 141.99-37.65 157.74 0 152.19 0 140.39-30.05 143.84-32.3 130.64 0ZM133.74-9.5L135.14-13.7 148.59-13.7 150.19-9.5 133.74-9.5ZM177.29-4.85L179.69-1.9Q178.29-0.8 176.34-0.15 174.39 0.5 172.44 0.5L172.44 0.5Q169.04 0.5 166.49-0.85 163.94-2.2 162.51-4.63 161.09-7.05 161.09-10.35L161.09-10.35Q161.09-13.65 162.61-16.1 164.14-18.55 166.61-19.88 169.09-21.2 171.94-21.2L171.94-21.2Q174.44-21.2 176.41-20.5 178.39-19.8 179.79-18.6L179.79-18.6 177.49-15.6Q176.59-16.3 175.29-16.85 173.99-17.4 172.34-17.4L172.34-17.4Q170.54-17.4 169.01-16.48 167.49-15.55 166.61-13.95 165.74-12.35 165.74-10.35L165.74-10.35Q165.74-8.45 166.64-6.83 167.54-5.2 169.14-4.28 170.74-3.35 172.79-3.35L172.79-3.35Q174.14-3.35 175.26-3.75 176.39-4.15 177.29-4.85L177.29-4.85ZM200.09-4.85L202.49-1.9Q201.09-0.8 199.14-0.15 197.19 0.5 195.24 0.5L195.24 0.5Q191.84 0.5 189.29-0.85 186.74-2.2 185.31-4.63 183.89-7.05 183.89-10.35L183.89-10.35Q183.89-13.65 185.41-16.1 186.94-18.55 189.41-19.88 191.89-21.2 194.74-21.2L194.74-21.2Q197.24-21.2 199.21-20.5 201.19-19.8 202.59-18.6L202.59-18.6 200.29-15.6Q199.39-16.3 198.09-16.85 196.79-17.4 195.14-17.4L195.14-17.4Q193.34-17.4 191.81-16.48 190.29-15.55 189.41-13.95 188.54-12.35 188.54-10.35L188.54-10.35Q188.54-8.45 189.44-6.83 190.34-5.2 191.94-4.28 193.54-3.35 195.59-3.35L195.59-3.35Q196.94-3.35 198.06-3.75 199.19-4.15 200.09-4.85L200.09-4.85ZM206.68-10.55L206.68-10.55Q206.68-13.65 208.16-16.15 209.63-18.65 212.23-20.1 214.83-21.55 218.13-21.55L218.13-21.55Q221.53-21.55 224.08-20.1 226.63-18.65 228.03-16.15 229.43-13.65 229.43-10.55L229.43-10.55Q229.43-7.45 228.03-4.93 226.63-2.4 224.06-0.95 221.48 0.5 218.08 0.5L218.08 0.5Q214.78 0.5 212.21-0.88 209.63-2.25 208.16-4.73 206.68-7.2 206.68-10.55ZM211.33-10.5L211.33-10.5Q211.33-8.5 212.23-6.88 213.13-5.25 214.66-4.3 216.18-3.35 218.03-3.35L218.03-3.35Q219.98-3.35 221.51-4.3 223.03-5.25 223.88-6.88 224.73-8.5 224.73-10.5L224.73-10.5Q224.73-12.5 223.88-14.13 223.03-15.75 221.51-16.73 219.98-17.7 218.03-17.7L218.03-17.7Q216.13-17.7 214.61-16.7 213.08-15.7 212.21-14.08 211.33-12.45 211.33-10.5ZM242.28 0.8L242.28 0.8Q239.48 0.8 237.66-0.93 235.83-2.65 235.73-5.4L235.73-5.4 235.73-20.7 240.38-20.7 240.38-7.05Q240.48-5.35 241.36-4.3 242.23-3.25 244.13-3.2L244.13-3.2Q245.88-3.2 247.26-4.23 248.63-5.25 249.48-7.03 250.33-8.8 250.33-11.05L250.33-11.05 250.33-20.7 254.98-20.7 254.98 0 250.73 0 250.33-5.1 250.58-4.2Q249.98-2.75 248.76-1.63 247.53-0.5 245.88 0.15 244.23 0.8 242.28 0.8ZM263.03-20.7L267.18-20.7 267.58-15.65 267.38-16.45Q268.38-18.75 270.63-20.13 272.88-21.5 275.83-21.5L275.83-21.5Q278.78-21.5 280.65-19.78 282.53-18.05 282.58-15.3L282.58-15.3 282.58 0 277.88 0 277.88-13.65Q277.83-15.35 276.9-16.43 275.98-17.5 274.03-17.5L274.03-17.5Q272.23-17.5 270.78-16.5 269.33-15.5 268.5-13.75 267.68-12 267.68-9.7L267.68-9.7 267.68 0 263.03 0 263.03-20.7ZM292.68-20.6L292.68-29.8 297.32-29.8 297.32-20.6 303.02-20.6 303.02-16.95 297.32-16.95 297.32 0 292.68 0 292.68-16.95 288.88-16.95 288.88-20.6 292.68-20.6ZM308.62 0L308.62-20.7 313.27-20.7 313.27 0 308.62 0ZM308.27-28.2L308.27-28.2Q308.27-29.3 309.15-30.05 310.02-30.8 311.07-30.8L311.07-30.8Q312.12-30.8 312.95-30.05 313.77-29.3 313.77-28.2L313.77-28.2Q313.77-27.05 312.95-26.33 312.12-25.6 311.07-25.6L311.07-25.6Q310.02-25.6 309.15-26.35 308.27-27.1 308.27-28.2ZM321.32-20.7L325.47-20.7 325.87-15.65 325.67-16.45Q326.67-18.75 328.92-20.13 331.17-21.5 334.12-21.5L334.12-21.5Q337.07-21.5 338.94-19.78 340.82-18.05 340.87-15.3L340.87-15.3 340.87 0 336.17 0 336.17-13.65Q336.12-15.35 335.19-16.43 334.27-17.5 332.32-17.5L332.32-17.5Q330.52-17.5 329.07-16.5 327.62-15.5 326.79-13.75 325.97-12 325.97-9.7L325.97-9.7 325.97 0 321.32 0 321.32-20.7ZM358.92 10.25L358.92 10.25Q356.62 10.25 354.87 9.73 353.12 9.2 351.69 8.25 350.27 7.3 348.97 6.1L348.97 6.1 351.67 2.95Q353.32 4.5 355.02 5.35 356.72 6.2 358.82 6.2L358.82 6.2Q361.17 6.2 362.79 5.43 364.42 4.65 365.27 3.28 366.12 1.9 366.12 0.1L366.12 0.1 366.17-5.5 366.57-4.6Q365.67-2.45 363.32-0.98 360.97 0.5 357.62 0.5L357.62 0.5Q354.77 0.5 352.39-0.95 350.02-2.4 348.59-4.88 347.17-7.35 347.17-10.45L347.17-10.45Q347.17-13.7 348.67-16.18 350.17-18.65 352.62-20.1 355.07-21.55 357.97-21.55L357.97-21.55Q360.72-21.55 362.99-20.43 365.27-19.3 366.32-17.55L366.32-17.55 366.07-16.7 366.57-20.7 370.82-20.7 370.82 0.15Q370.82 2.95 369.37 5.25 367.92 7.55 365.27 8.9 362.62 10.25 358.92 10.25ZM351.82-10.55L351.82-10.55Q351.82-8.55 352.77-6.9 353.72-5.25 355.34-4.3 356.97-3.35 358.97-3.35L358.97-3.35Q360.82-3.35 362.29-4.03 363.77-4.7 364.77-5.88 365.77-7.05 366.17-8.6L366.17-8.6 366.17-12.7Q365.72-14.2 364.67-15.33 363.62-16.45 362.17-17.07 360.72-17.7 358.97-17.7L358.97-17.7Q356.97-17.7 355.34-16.8 353.72-15.9 352.77-14.28 351.82-12.65 351.82-10.55ZM378.86-4.35L383.06-4.35Q381.96-1.75 380.89 0.83 379.81 3.4 378.71 6.05L378.71 6.05 374.96 6.05Q375.96 3.4 376.91 0.83 377.86-1.75 378.86-4.35L378.86-4.35ZM405.96 0L405.96-36.15 410.81-36.15 410.81 0 405.96 0ZM420.06-20.7L424.21-20.7 424.61-15.65 424.41-16.45Q425.41-18.75 427.66-20.13 429.91-21.5 432.86-21.5L432.86-21.5Q435.81-21.5 437.68-19.78 439.56-18.05 439.61-15.3L439.61-15.3 439.61 0 434.91 0 434.91-13.65Q434.86-15.35 433.93-16.43 433.01-17.5 431.06-17.5L431.06-17.5Q429.26-17.5 427.81-16.5 426.36-15.5 425.53-13.75 424.71-12 424.71-9.7L424.71-9.7 424.71 0 420.06 0 420.06-20.7ZM462.1-4.85L464.5-1.9Q463.1-0.8 461.15-0.15 459.2 0.5 457.25 0.5L457.25 0.5Q453.85 0.5 451.3-0.85 448.75-2.2 447.33-4.63 445.9-7.05 445.9-10.35L445.9-10.35Q445.9-13.65 447.43-16.1 448.95-18.55 451.43-19.88 453.9-21.2 456.75-21.2L456.75-21.2Q459.25-21.2 461.23-20.5 463.2-19.8 464.6-18.6L464.6-18.6 462.3-15.6Q461.4-16.3 460.1-16.85 458.8-17.4 457.15-17.4L457.15-17.4Q455.35-17.4 453.83-16.48 452.3-15.55 451.43-13.95 450.55-12.35 450.55-10.35L450.55-10.35Q450.55-8.45 451.45-6.83 452.35-5.2 453.95-4.28 455.55-3.35 457.6-3.35L457.6-3.35Q458.95-3.35 460.08-3.75 461.2-4.15 462.1-4.85L462.1-4.85ZM468.15-2.65L468.15-2.65Q468.15-3.75 468.98-4.53 469.8-5.3 470.8-5.3L470.8-5.3Q471.7-5.3 472.53-4.53 473.35-3.75 473.35-2.65L473.35-2.65Q473.35-1.45 472.53-0.73 471.7 0 470.8 0L470.8 0Q469.8 0 468.98-0.73 468.15-1.45 468.15-2.65L468.15-2.65Z" opacity="1" transform="matrix(1,0,0,1,0,0)" fill="#f3b243" class="wordmark-text-0" data-fill-palette-color="primary" id="text-0"></path></svg></g></svg></g><g transform="matrix(1,0,0,1,0,52.67779732357781)"><svg viewBox="0 0 395.52 20.223099266357238" height="20.223099266357238" width="395.52"><g transform="matrix(1,0,0,1,0,0)"><svg width="395.52" viewBox="2.75 -33.65 692.83 34.15" height="20.223099266357238" data-palette-color="#f3b243"><path d="M14.05 0.5Q8.35 0.5 5.55-3.5 2.75-7.5 2.75-16.35 2.75-25.2 5.45-29.23 8.15-33.25 14.1-33.25L14.1-33.25Q18-33.25 21.95-32L21.95-32 21.95-25.4 19.2-25.4 19.2-29.85Q17-30.65 14.1-30.65L14.1-30.65Q9.6-30.65 7.65-27.3 5.7-23.95 5.7-16.45 5.7-8.95 7.8-5.55 9.9-2.15 14.1-2.15L14.1-2.15Q17.25-2.15 21.6-3.5L21.6-3.5 22.25-0.9Q18.15 0.5 14.05 0.5L14.05 0.5ZM28.35-11.85Q28.35-17.6 30.72-20.83 33.1-24.05 37.65-24.05 42.2-24.05 44.42-21.05 46.65-18.05 46.65-13.05L46.65-13.05 46.5-10.55 31.2-10.55Q31.45-6.8 33.2-4.48 34.95-2.15 38.02-2.15 41.1-2.15 45.25-3.6L45.25-3.6 46-1.1Q41.95 0.45 38.4 0.45L38.4 0.45Q33.5 0.45 30.92-2.83 28.35-6.1 28.35-11.85ZM37.85-21.5L37.85-21.5Q31.55-21.5 31.2-13.05L31.2-13.05 43.8-13.05Q43.8-21.5 37.85-21.5ZM59.25-21.25L54.55-21.25 54.55-23.75 61.9-23.75 62-20.85Q63.6-21.85 66.5-22.85 69.4-23.85 71.59-24.05L71.59-24.05 71.59-21.1Q69.55-20.95 66.52-20.1 63.5-19.25 62-18.35L62-18.35 62-2.5 70-2.5 70 0 54.55 0 54.55-2.5 59.25-2.5 59.25-21.25ZM82.99-9.1L82.99-20.9 78.79-20.9 78.79-23.4 82.99-23.4 82.99-29.15 85.64-29.65 85.64-23.4 95.14-23.4 95.14-20.9 85.64-20.9 85.64-9.2Q85.64-5.3 86.42-3.7 87.19-2.1 89.59-2.1 91.99-2.1 94.89-3.05L94.89-3.05 95.49-0.55Q92.59 0.5 90.09 0.5 87.59 0.5 86.17-0.15 84.74-0.8 84.07-2.23 83.39-3.65 83.19-5.15 82.99-6.65 82.99-9.1L82.99-9.1ZM111.94-21.25L106.14-21.25 106.14-23.75 114.59-23.75 114.59-2.5 120.39-2.5 120.39 0 105.74 0 105.74-2.5 111.94-2.5 111.94-21.25ZM113.04-28.55Q112.14-28.55 111.52-29.18 110.89-29.8 110.89-30.78 110.89-31.75 111.52-32.33 112.14-32.9 113.04-32.9 113.94-32.9 114.52-32.35 115.09-31.8 115.09-30.8 115.09-29.8 114.52-29.18 113.94-28.55 113.04-28.55ZM133.99-2.5L133.99-21.25 129.24-21.25 129.24-23.75 133.99-23.75Q133.99-33.65 141.34-33.65L141.34-33.65Q143.74-33.65 146.64-32.8L146.64-32.8 146.04-30.25Q143.24-31.05 141.44-31.05L141.44-31.05Q138.84-31.05 137.74-29.3 136.64-27.55 136.64-23.75L136.64-23.75 145.69-23.75 145.69-21.25 136.64-21.25 136.64-2.5 145.79-2.5 145.79 0 129.04 0 129.04-2.5 133.99-2.5ZM161.94-21.25L156.14-21.25 156.14-23.75 164.59-23.75 164.59-2.5 170.39-2.5 170.39 0 155.74 0 155.74-2.5 161.94-2.5 161.94-21.25ZM163.04-28.55Q162.14-28.55 161.51-29.18 160.89-29.8 160.89-30.78 160.89-31.75 161.51-32.33 162.14-32.9 163.04-32.9 163.94-32.9 164.51-32.35 165.09-31.8 165.09-30.8 165.09-29.8 164.51-29.18 163.94-28.55 163.04-28.55ZM178.33-11.85Q178.33-17.6 180.71-20.83 183.08-24.05 187.63-24.05 192.18-24.05 194.41-21.05 196.63-18.05 196.63-13.05L196.63-13.05 196.48-10.55 181.18-10.55Q181.43-6.8 183.18-4.48 184.93-2.15 188.01-2.15 191.08-2.15 195.23-3.6L195.23-3.6 195.98-1.1Q191.93 0.45 188.38 0.45L188.38 0.45Q183.48 0.45 180.91-2.83 178.33-6.1 178.33-11.85ZM187.83-21.5L187.83-21.5Q181.53-21.5 181.18-13.05L181.18-13.05 193.78-13.05Q193.78-21.5 187.83-21.5ZM218.73-33.2L221.38-33.2 221.38-4.15 221.88 0.2 219.33 0.5 218.83-2.15Q215.08 0.45 211.93 0.45L211.93 0.45Q207.48 0.45 205.01-2.85 202.53-6.15 202.53-11.83 202.53-17.5 205.28-20.78 208.03-24.05 212.78-24.05L212.78-24.05Q215.58-24.05 218.73-22.7L218.73-22.7 218.73-33.2ZM205.38-11.9Q205.38-7.5 207.11-4.83 208.83-2.15 212.08-2.15 215.33-2.15 218.73-5L218.73-5 218.73-20Q217.68-20.5 215.86-20.98 214.03-21.45 212.88-21.45L212.88-21.45Q209.33-21.45 207.36-18.88 205.38-16.3 205.38-11.9ZM260.78-12L260.78-12 256.18-12 256.18 0 253.43 0 253.43-32.75 260.78-32.75Q266.78-32.75 269.65-30.48 272.53-28.2 272.53-22.6 272.53-17 269.63-14.5 266.73-12 260.78-12ZM260.78-30.25L260.78-30.25 256.18-30.25 256.18-14.5 260.78-14.5Q265.38-14.5 267.5-16.35 269.63-18.2 269.63-22.55 269.63-26.9 267.53-28.58 265.43-30.25 260.78-30.25ZM296.22 0L293.67 0 293.57-2.05Q288.77 0.45 285.57 0.45 282.37 0.45 280.52-1.75 278.67-3.95 278.67-7.75L278.67-7.75 278.67-23.75 281.32-23.75 281.32-7.75Q281.32-5.3 282.5-3.73 283.67-2.15 286.07-2.15 288.47-2.15 293.57-4.65L293.57-4.65 293.57-23.75 296.22-23.75 296.22 0ZM306.32 0L303.82 0 303.82-33.2 306.47-33.2 306.47-21.45Q310.22-24.05 313.27-24.05L313.27-24.05Q317.77-24.05 320.22-20.98 322.67-17.9 322.67-12.2 322.67-6.5 319.92-3.03 317.17 0.45 312.42 0.45L312.42 0.45Q309.52 0.45 306.42-1L306.42-1 306.32 0ZM319.82-12.15Q319.82-16.55 318.1-19 316.37-21.45 313.12-21.45 309.87-21.45 306.47-18.6L306.47-18.6 306.47-3.6Q307.52-3.1 309.35-2.63 311.17-2.15 312.32-2.15L312.32-2.15Q315.82-2.15 317.82-4.95 319.82-7.75 319.82-12.15ZM336.37-30.75L330.42-30.7 330.37-33.15 339.02-33.2 339.02-2.5 345.12-2.5 345.12 0 330.22 0 330.22-2.5 336.37-2.5 336.37-30.75ZM361.92-21.25L356.12-21.25 356.12-23.75 364.57-23.75 364.57-2.5 370.37-2.5 370.37 0 355.72 0 355.72-2.5 361.92-2.5 361.92-21.25ZM363.02-28.55Q362.12-28.55 361.49-29.18 360.87-29.8 360.87-30.78 360.87-31.75 361.49-32.33 362.12-32.9 363.02-32.9 363.92-32.9 364.49-32.35 365.07-31.8 365.07-30.8 365.07-29.8 364.49-29.18 363.92-28.55 363.02-28.55ZM395.61-16L392.91-16 392.91-20.95Q390.46-21.5 389.01-21.5L389.01-21.5Q385.41-21.5 383.64-18.95 381.86-16.4 381.86-11.9 381.86-7.4 383.66-4.78 385.46-2.15 389.01-2.15L389.01-2.15Q391.26-2.15 395.26-3.55L395.26-3.55 396.01-1.05Q392.06 0.45 389.06 0.45L389.06 0.45Q384.16 0.45 381.59-2.83 379.01-6.1 379.01-11.95 379.01-17.8 381.56-20.93 384.11-24.05 389.06-24.05L389.06-24.05Q392.36-24.05 395.61-23L395.61-23 395.61-16ZM428.71 0L425.81 0 435.21-32.75 440.01-32.75 449.06 0 446.11 0 444.06-7.55 430.81-7.55 428.71 0ZM431.51-10.05L443.41-10.05 438.01-30.25 437.16-30.25 431.51-10.05ZM470.61-16L467.91-16 467.91-20.95Q465.46-21.5 464.01-21.5L464.01-21.5Q460.41-21.5 458.63-18.95 456.86-16.4 456.86-11.9 456.86-7.4 458.66-4.78 460.46-2.15 464.01-2.15L464.01-2.15Q466.26-2.15 470.26-3.55L470.26-3.55 471.01-1.05Q467.06 0.45 464.06 0.45L464.06 0.45Q459.16 0.45 456.58-2.83 454.01-6.1 454.01-11.95 454.01-17.8 456.56-20.93 459.11-24.05 464.06-24.05L464.06-24.05Q467.36-24.05 470.61-23L470.61-23 470.61-16ZM495.6-16L492.9-16 492.9-20.95Q490.45-21.5 489-21.5L489-21.5Q485.4-21.5 483.63-18.95 481.85-16.4 481.85-11.9 481.85-7.4 483.65-4.78 485.45-2.15 489-2.15L489-2.15Q491.25-2.15 495.25-3.55L495.25-3.55 496-1.05Q492.05 0.45 489.05 0.45L489.05 0.45Q484.15 0.45 481.58-2.83 479-6.1 479-11.95 479-17.8 481.55-20.93 484.1-24.05 489.05-24.05L489.05-24.05Q492.35-24.05 495.6-23L495.6-23 495.6-16ZM502.9-11.8Q502.9-24.05 512.45-24.05 522-24.05 522-11.8 522 0.45 512.45 0.45 502.9 0.45 502.9-11.8ZM512.45-21.45Q505.75-21.45 505.75-11.8 505.75-2.15 512.45-2.15 519.15-2.15 519.15-11.8 519.15-21.45 512.45-21.45ZM546.2 0L543.65 0 543.55-2.05Q538.75 0.45 535.55 0.45 532.35 0.45 530.5-1.75 528.65-3.95 528.65-7.75L528.65-7.75 528.65-23.75 531.3-23.75 531.3-7.75Q531.3-5.3 532.47-3.73 533.65-2.15 536.05-2.15 538.45-2.15 543.55-4.65L543.55-4.65 543.55-23.75 546.2-23.75 546.2 0ZM553.74-23.75L556.29-23.75 556.39-21.75Q561.24-24.05 564.44-24.05 567.64-24.05 569.47-21.85 571.29-19.65 571.29-15.85L571.29-15.85 571.29 0 568.64 0 568.64-15.85Q568.64-18.3 567.44-19.9L567.44-19.9Q566.24-21.45 563.84-21.45 561.44-21.45 556.39-19.25L556.39-19.25 556.39 0 553.74 0 553.74-23.75ZM582.94-9.1L582.94-20.9 578.74-20.9 578.74-23.4 582.94-23.4 582.94-29.15 585.59-29.65 585.59-23.4 595.09-23.4 595.09-20.9 585.59-20.9 585.59-9.2Q585.59-5.3 586.37-3.7 587.14-2.1 589.54-2.1 591.94-2.1 594.84-3.05L594.84-3.05 595.44-0.55Q592.54 0.5 590.04 0.5 587.54 0.5 586.12-0.15 584.69-0.8 584.02-2.23 583.34-3.65 583.14-5.15 582.94-6.65 582.94-9.1L582.94-9.1ZM610.84-2.15L610.84-2.15Q612.69-2.15 614.86-3.33 617.04-4.5 618.04-5.5L618.04-5.5 618.04-11.45Q614.74-11.7 611.74-11.7 608.74-11.7 607.24-10.43 605.74-9.15 605.74-7L605.74-7Q605.74-2.15 610.84-2.15ZM610.79 0.45L610.79 0.45Q607.14 0.45 605.04-1.43 602.94-3.3 602.94-6.75 602.94-10.2 605.24-12.1L605.24-12.1Q607.54-14.05 611.34-14.05 615.14-14.05 618.04-13.75L618.04-13.75Q618.04-18.2 616.94-19.83 615.84-21.45 612.49-21.45 609.14-21.45 604.59-19.85L604.59-19.85 603.84-22.35Q608.49-24.05 612.24-24.05L612.24-24.05Q617.19-24.05 618.94-21.85 620.69-19.65 620.69-14.15L620.69-14.15 620.69-3.65 621.09 0.15 618.54 0.4 618.04-2.6Q616.89-1.6 614.79-0.58 612.69 0.45 610.79 0.45ZM628.74-23.75L631.29-23.75 631.39-21.75Q636.24-24.05 639.44-24.05 642.64-24.05 644.46-21.85 646.29-19.65 646.29-15.85L646.29-15.85 646.29 0 643.64 0 643.64-15.85Q643.64-18.3 642.44-19.9L642.44-19.9Q641.24-21.45 638.84-21.45 636.44-21.45 631.39-19.25L631.39-19.25 631.39 0 628.74 0 628.74-23.75ZM657.93-9.1L657.93-20.9 653.73-20.9 653.73-23.4 657.93-23.4 657.93-29.15 660.58-29.65 660.58-23.4 670.08-23.4 670.08-20.9 660.58-20.9 660.58-9.2Q660.58-5.3 661.36-3.7 662.13-2.1 664.53-2.1 666.93-2.1 669.83-3.05L669.83-3.05 670.43-0.55Q667.53 0.5 665.03 0.5 662.53 0.5 661.11-0.15 659.68-0.8 659.01-2.23 658.33-3.65 658.13-5.15 657.93-6.65 657.93-9.1L657.93-9.1ZM678.83-1.15L678.83-1.15 679.48-3.75Q684.43-2.1 687.13-2.1 689.83-2.1 691.31-3.28 692.78-4.45 692.78-6.4 692.78-8.35 691.61-9.28 690.43-10.2 686.73-11.05 683.03-11.9 681.18-13.5L681.18-13.5Q679.33-15 679.33-18 679.33-21 681.61-22.58 683.88-24.15 687.48-24.15 691.08-24.15 695.28-22.55L695.28-22.55 694.58-20.2Q690.33-21.6 687.73-21.6 685.13-21.6 683.63-20.7L683.63-20.7Q682.13-19.7 682.13-18 682.13-16.3 683.46-15.35 684.78-14.4 688.58-13.45 692.38-12.5 693.98-11.03 695.58-9.55 695.58-6.4 695.58-3.25 693.43-1.4L693.43-1.4Q691.33 0.45 687.43 0.45 683.53 0.45 678.83-1.15Z" opacity="1" transform="matrix(1,0,0,1,0,0)" fill="#f3b243" class="slogan-text-1" data-fill-palette-color="secondary" id="text-1"></path></svg></g></svg></g></svg></g></svg></g><g transform="matrix(1,0,0,1,103.32152636377498,0)"><svg viewBox="0 0 190.85454727244996 190.85454727244996" height="190.85454727244996" width="190.85454727244996"><g><svg xmlns="http://www.w3.org/2000/svg" xmlns:xlink="http://www.w3.org/1999/xlink" version="1.1" x="0" y="0" viewBox="0.5999999999999996 0.7000000000000002 46.9 46.9" enable-background="new 0 0 48 48" xml:space="preserve" height="190.85454727244996" width="190.85454727244996" class="icon-icon-0" data-fill-palette-color="accent" id="icon-0"><path fill="#f3b243" d="M42 21.5c0.2 0 0.5 0.1 0.7 0.1 2.6 0 4.8-2.2 4.8-4.8s-2.1-4.8-4.8-4.8c-2.6 0-4.8 2.2-4.8 4.8 0 0.9 0.3 1.8 0.7 2.5-0.1 0.1-0.2 0.2-0.2 0.3l-3.2 4.5c-0.1 0.1-0.2 0.3-0.2 0.5-1-0.3-2.1-0.5-3.2-0.5-2.3 0-4.5 0.7-6.3 1.9l-8.3-12.3c0-0.1-0.1-0.1-0.2-0.2 1.2-1.4 1.9-3.1 1.9-5.1 0-4.3-3.4-7.7-7.6-7.7S3.6 4 3.6 8.2s3.4 7.7 7.6 7.7c0.8 0 1.5-0.1 2.3-0.3 0 0.1 0.1 0.2 0.1 0.3l8.4 12.4c0.1 0.2 0.2 0.3 0.4 0.4-1.4 2-2.3 4.4-2.3 7 0 0.1 0 0.1 0 0.2-0.1 0-0.3 0-0.4 0L7.8 38.3c-0.1 0-0.3 0.1-0.4 0.1-0.7-0.9-1.8-1.5-3-1.5-2.1 0-3.8 1.7-3.8 3.9 0 2.1 1.7 3.9 3.8 3.9 1.5 0 2.9-0.9 3.5-2.3 0.1 0 0.2 0 0.3 0 0.1 0 0.3 0 0.4 0l11.9-2.3c0.1 0 0.3-0.1 0.4-0.1 1.7 4.4 5.9 7.6 10.8 7.6 6.4 0 11.6-5.3 11.6-11.8 0-3.9-1.8-7.3-4.7-9.4l3.1-4.4C41.9 21.8 42 21.7 42 21.5zM31.1 33.8c0.2 0.3 0.5 0.6 1 0.9 1.1 0.6 2 1.1 2.5 1.7 0.5 0.6 0.8 1.4 0.8 2.5 0 1-0.3 1.9-0.8 2.5-0.5 0.6-1.3 1-2.2 1.1v1.8h-1.3v-1.8c-1-0.1-1.7-0.5-2.4-1.2-0.6-0.7-0.9-1.7-0.9-3.1h2.5c0 0.8 0.1 1.4 0.4 1.8 0.3 0.4 0.6 0.5 1 0.5 0.4 0 0.7-0.1 0.9-0.4 0.2-0.3 0.3-0.7 0.3-1.2 0-0.5-0.1-0.9-0.3-1.2-0.2-0.3-0.5-0.6-1-0.9-1.1-0.5-2-1.1-2.5-1.7-0.5-0.6-0.8-1.4-0.8-2.5 0-1 0.3-1.8 0.8-2.5s1.3-1 2.2-1.2v-1.9h1.3v1.9c0.9 0.2 1.6 0.6 2.1 1.3 0.5 0.7 0.8 1.7 0.8 2.8H33c0-0.7-0.1-1.3-0.3-1.6-0.2-0.4-0.5-0.6-0.8-0.6-0.3 0-0.6 0.2-0.8 0.5-0.2 0.3-0.3 0.7-0.3 1.2C30.8 33.1 30.9 33.5 31.1 33.8z" data-fill-palette-color="accent"></path></svg></g></svg></g><g></g></svg></g><defs></defs></svg><rect width="359.53401709640224" height="247.2" fill="none" stroke="none" visibility="hidden"></rect></g></svg></g></svg>